<svg xmlns="http://www.w3.org/2000/svg" version="1.1" xmlnsXlink="http://www.w3.org/1999/xlink" xmlnsSvgjs="http://svgjs.dev/svgjs" width="700" height="500" viewBox="0 0 1000 1000"><rect width="700" height="500" fill="#ffffff"></rect><g transform="matrix(0.7,0,0,0.7,149.57575757575756,282.1265587044535)"><svg viewBox="0 0 396 247" data-background-color="#cd5f4c" preserveAspectRatio="xMidYMid meet" height="623" width="1000" xmlns="http://www.w3.org/2000/svg" xmlnsXlink="http://www.w3.org/1999/xlink"><g id="tight-bounds" transform="matrix(1,0,0,1,0.2400000000000091,-0.09999999999999432)"><svg viewBox="0 0 395.52 247.2" height="247.2" width="395.52"><g><svg></svg></g><g><svg viewBox="0 0 395.52 247.2" height="247.2" width="395.52"><g transform="matrix(1,0,0,1,75.54432,96.75436952118497)"><svg viewBox="0 0 244.43135999999998 53.691260957630035" height="53.691260957630035" width="244.43135999999998"><g><svg viewBox="0 0 244.43135999999998 53.691260957630035" height="53.691260957630035" width="244.43135999999998"><g><svg viewBox="0 0 244.43135999999998 53.691260957630035" height="53.691260957630035" width="244.43135999999998"><g><svg viewBox="0 0 244.43135999999998 53.691260957630035" height="53.691260957630035" width="244.43135999999998"><g id="textblocktransform"><svg viewBox="0 0 244.43135999999998 53.691260957630035" height="53.691260957630035" width="244.43135999999998" id="textblock"><g><svg viewBox="0 0 244.43135999999998 53.691260957630035" height="53.691260957630035" width="244.43135999999998"><g transform="matrix(1,0,0,1,0,0)"><svg width="244.43135999999998" viewBox="4.130000114440918 -36.040000915527344 212.59999084472656 46.709999084472656" height="53.691260957630035" data-palette-color="#ffffff"><path d="M4.13-35.55L10.18-35.55 21.8-6.54 33.42-35.55 39.5-35.55 39.5 0 34.81 0 34.81-13.84 35.25-28.78 23.58 0 20 0 8.35-28.71 8.81-13.84 8.81 0 4.13 0 4.13-35.55ZM49.12-26.42L55.71-6.62 61.86-26.42 66.7-26.42 56.08 4.08Q53.61 10.67 48.24 10.67L48.24 10.67 47.39 10.6 45.7 10.28 45.7 6.62 46.92 6.71Q49.22 6.71 50.5 5.79 51.78 4.86 52.61 2.39L52.61 2.39 53.61-0.29 44.19-26.42 49.12-26.42ZM81.27 0L71.43 0 71.43-35.55 81.46-35.55Q86.1-35.55 89.67-33.5 93.23-31.45 95.17-27.66 97.11-23.88 97.14-18.97L97.14-18.97 97.14-16.7Q97.14-11.67 95.2-7.89 93.26-4.1 89.66-2.08 86.05-0.05 81.27 0L81.27 0ZM81.59-31.69L76.12-31.69 76.12-3.83 81.05-3.83Q86.47-3.83 89.48-7.2 92.5-10.57 92.5-16.8L92.5-16.8 92.5-18.87Q92.5-24.93 89.66-28.28 86.81-31.64 81.59-31.69L81.59-31.69ZM114.47 0.49L114.47 0.49Q109.1 0.49 105.73-3.04 102.36-6.57 102.36-12.48L102.36-12.48 102.36-13.31Q102.36-17.24 103.86-20.32 105.36-23.41 108.06-25.16 110.76-26.9 113.91-26.9L113.91-26.9Q119.06-26.9 121.92-23.51 124.77-20.12 124.77-13.79L124.77-13.79 124.77-11.91 106.88-11.91Q106.97-8.01 109.16-5.6 111.35-3.2 114.71-3.2L114.71-3.2Q117.11-3.2 118.77-4.17 120.43-5.15 121.67-6.76L121.67-6.76 124.43-4.61Q121.11 0.49 114.47 0.49ZM113.91-23.19L113.91-23.19Q111.17-23.19 109.32-21.2 107.46-19.21 107.02-15.63L107.02-15.63 120.26-15.63 120.26-15.97Q120.06-19.41 118.4-21.3 116.74-23.19 113.91-23.19ZM145.38-7.01L145.38-7.01Q145.38-8.84 144-9.85 142.62-10.86 139.19-11.6 135.76-12.33 133.74-13.35 131.73-14.38 130.76-15.8 129.8-17.21 129.8-19.17L129.8-19.17Q129.8-22.41 132.55-24.66 135.29-26.9 139.57-26.9L139.57-26.9Q144.06-26.9 146.85-24.58 149.65-22.27 149.65-18.65L149.65-18.65 145.11-18.65Q145.11-20.51 143.53-21.85 141.96-23.19 139.57-23.19L139.57-23.19Q137.1-23.19 135.71-22.12 134.32-21.04 134.32-19.31L134.32-19.31Q134.32-17.68 135.61-16.85 136.9-16.02 140.29-15.26 143.67-14.5 145.77-13.45 147.87-12.4 148.88-10.93 149.89-9.45 149.89-7.32L149.89-7.32Q149.89-3.78 147.06-1.65 144.23 0.49 139.71 0.49L139.71 0.49Q136.54 0.49 134.1-0.63 131.66-1.76 130.28-3.77 128.9-5.79 128.9-8.13L128.9-8.13 133.41-8.13Q133.53-5.86 135.23-4.53 136.93-3.2 139.71-3.2L139.71-3.2Q142.28-3.2 143.83-4.24 145.38-5.27 145.38-7.01ZM160.68-26.42L160.68 0 156.16 0 156.16-26.42 160.68-26.42ZM155.8-33.42L155.8-33.42Q155.8-34.52 156.47-35.28 157.14-36.04 158.46-36.04 159.78-36.04 160.46-35.28 161.14-34.52 161.14-33.42 161.14-32.32 160.46-31.59 159.78-30.86 158.46-30.86 157.14-30.86 156.47-31.59 155.8-32.32 155.8-33.42ZM166.83-13.43L166.83-13.43Q166.83-19.6 169.69-23.25 172.54-26.9 177.26-26.9L177.26-26.9Q182.09-26.9 184.8-23.49L184.8-23.49 185.02-26.42 189.15-26.42 189.15-0.63Q189.15 4.49 186.11 7.45 183.07 10.4 177.94 10.4L177.94 10.4Q175.08 10.4 172.35 9.18 169.61 7.96 168.17 5.83L168.17 5.83 170.52 3.13Q173.42 6.71 177.62 6.71L177.62 6.71Q180.92 6.71 182.76 4.86 184.6 3 184.6-0.37L184.6-0.37 184.6-2.64Q181.89 0.49 177.21 0.49L177.21 0.49Q172.57 0.49 169.7-3.25 166.83-6.98 166.83-13.43ZM171.37-12.92L171.37-12.92Q171.37-8.45 173.2-5.9 175.03-3.34 178.33-3.34L178.33-3.34Q182.6-3.34 184.6-7.23L184.6-7.23 184.6-19.29Q182.53-23.07 178.38-23.07L178.38-23.07Q175.08-23.07 173.23-20.51 171.37-17.94 171.37-12.92ZM195.95-26.42L200.23-26.42 200.37-23.1Q203.4-26.9 208.28-26.9L208.28-26.9Q216.66-26.9 216.73-17.46L216.73-17.46 216.73 0 212.21 0 212.21-17.48Q212.19-20.34 210.91-21.7 209.63-23.07 206.92-23.07L206.92-23.07Q204.72-23.07 203.06-21.9 201.4-20.73 200.47-18.82L200.47-18.82 200.47 0 195.95 0 195.95-26.42Z" opacity="1" transform="matrix(1,0,0,1,0,0)" fill="#000000" class="wordmark-text-0" data-fill-palette-color="primary" id="text-0"></path></svg></g></svg></g></svg></g></svg></g></svg></g></svg></g></svg></g><path d="M193.924 90.754L193.924 30.894 8.512 30.894 8.512 216.306 193.924 216.306 193.924 156.446 189.082 156.446 189.082 211.464 13.354 211.464 13.354 35.736 189.082 35.736 189.082 90.754Z" fill="#000000" stroke="transparent" data-fill-palette-color="primary"></path></svg></g><defs></defs></svg><rect width="395.52" height="247.2" fill="none" stroke="none" visibility="hidden"></rect></g></svg></g></svg>